<?xml version="1.0" encoding="utf-8"?>
<!-- Generator: Adobe Illustrator 26.2.1, SVG Export Plug-In . SVG Version: 6.00 Build 0)  -->
<svg version="1.1" id="Capa_1" xmlns="http://www.w3.org/2000/svg" xmlns:xlink="http://www.w3.org/1999/xlink" x="0px" y="0px"
	 viewBox="0 0 800 800" style="enable-background:new 0 0 800 800;" xml:space="preserve">
<style type="text/css">
	.st0{fill:#007BFF;}
	.st1{fill:none;}
</style>
<g>
	<g>
		<path class="st0" d="M458.75,615.9c-0.32,4.22-0.65,8.43-0.84,11.01c11.01-13.87,23.69-28.13,34.39-43.73
			c14.2-20.7,18.1-44.29,13.06-68.8c-1.35-6.59-5.74-12.69-9.33-18.65c-15.18-25.25-30.58-50.36-45.9-75.52
			c-4.54-7.46-2.49-12.61,4.45-17.84c15.68-11.81,29.18-25.66,31.32-46.55c0.6-5.86-0.97-11.94-1.54-17.91
			c-1.07-0.31-2.13-0.62-3.2-0.92c-3,3.27-5.82,6.74-9.05,9.76c-5.44,5.08-10.88,10.23-16.8,14.71c-8.84,6.68-17.5,8.48-27.49,0.5
			c-6.92-5.53-15.46-9.8-23.97-12.33c-7.41-2.21-15.82-1.89-23.72-1.48c-19.88,1.03-39.79,2.21-59.58,4.38
			c-14.28,1.57-29.71,2.01-42.25,7.96c-21.27,10.08-43.23,13.57-66,15.57c-10.18,0.89-20.37,2.12-30.4,3.99
			c-5.25,0.98-10.81,2.8-15.13,5.82c-11.88,8.3-11.18,19.41,1.12,27.01c2.91,1.8,5.92,3.43,10.88,6.28
			c-5.18-0.31-8.17-0.49-11.84-0.7c2.63,11.25,8.61,16.92,19.59,19.71c11.17,2.84,21.82,8.14,32.32,13.15
			c14.52,6.93,28.27,15.61,43.12,21.67c14.8,6.04,30.55,9.78,46.74,14.79c-3.4,1.26-6.72,2.49-10.92,4.05
			c7.95,24.01,3.53,46.86-10.21,69.77c4.14-0.71,6.89-1.17,10.5-1.79c-3.1,17.3-6.09,33.96-9.53,53.13
			c4.86-3.18,7.31-4.78,10.16-6.64c0.04,16.41,0.09,32.42,0.13,48.42c1.45,0.7,2.89,1.4,4.34,2.1c1.57-2.64,3.13-5.27,6.11-10.28
			c10.44,44.82,26.25,81.79,65.68,106.21c-4.58-10.28-8.42-18.89-12.25-27.5c21.15,18.69,38.98,40.59,66.91,53.14
			C410.84,718.12,421.47,664.56,458.75,615.9z M480.66,344.34c3.18,19.42-16.67,47.33-33.29,49.65c-4.13-9.63-2.7-16.37,8.74-19.28
			c3.12-0.79,6.64-2.79,8.47-5.32C469.94,361.97,474.54,354.02,480.66,344.34z M482.78,583.2c4.04-22.52,7.91-44.09,11.82-65.88
			C502.66,537.55,498.03,564.18,482.78,583.2z M316.37,372.8c-11.83,13.91-24.23,14.04-35.87,1.21
			C293.9,373.55,305.13,373.17,316.37,372.8z"/>
		<path class="st0" d="M628.85,109.76c-17.66,2.97-32.5,6.08-47.51,7.74c-8.47,0.94-17.35,0.38-25.79-1.05
			c-22.66-3.87-33.71-16.3-39.04-41.53c-2.42-11.43-2.89-23.42-2.94-35.17c-0.05-11.75,1.53-23.51-0.02-36.55
			c-2.86,7.07-6.63,13.92-8.43,21.26c-5.81,23.73,0.44,46.9,4.34,70.15c2.28,13.57,4.3,27.19,6.04,40.84
			c1.97,15.4-0.78,29.8-10.48,42.4c-15.09,19.61-29.88,39.48-45.48,58.68c-4.32,5.31-10.73,9.29-16.83,12.72
			c-13.21,7.41-22.37,7.24-31.3-4.94c-12.19-16.61-22.44-34.85-31.69-53.31c-5.38-10.72-7.18-23.24-10.85-35.84
			c-4.35,12.87-1.21,41.53,6.99,59.8c8.14,18.15,17.13,35.91,25.86,54.06c-6.67,7.23-13.9,6.69-22.96,2.69
			c-44.35-19.56-76.16-50.86-93.17-96.62c-0.34-0.9-1.11-1.65-3.91-1.51c6.26,15.68,12.53,31.37,19.67,49.26
			c-5.1-3.19-8.7-5.44-14.49-9.07c22.47,37.06,56.22,55.42,92.86,70.43c-18.11,16.09-43.2,18.74-63.81,9.56
			c-16.49-7.34-33.77-13.08-51.04-18.45c-40.65-12.63-72.84-36.86-96.33-72.29c4.71,9.01,8.88,18.37,14.28,26.94
			c5.19,8.25,11.66,15.69,19.68,26.27c-8.61-2.36-14.54-3.99-20.47-5.61c-0.49,0.65-0.98,1.31-1.47,1.96
			c8.06,5.35,15.46,12.46,24.29,15.71c23.59,8.68,47.79,15.71,71.76,23.37c3.38,1.08,6.81,1.97,10.22,2.94
			c35.36,10.08,40.25,16.5,40.3,56.51c10.79-8.16,44.43-6.46,50.18-15.48c16.74-26.27,19.52-49.49,46.26-61.7
			c54.89-25.04,93.4-65.75,120.98-118.08c3.65-6.93,7.99-10.23,15.85-11.82C585.29,139.05,607.48,128.05,628.85,109.76z"/>
		<path class="st1" d="M480.66,344.34c-6.13,9.68-10.72,17.64-16.08,25.04c-1.83,2.53-5.35,4.52-8.47,5.32
			c-11.44,2.91-12.87,9.65-8.74,19.28C463.99,391.67,483.84,363.76,480.66,344.34z"/>
		<path class="st1" d="M482.78,583.2c15.25-19.02,19.88-45.65,11.82-65.88C490.69,539.1,486.82,560.68,482.78,583.2z"/>
		<path class="st1" d="M316.37,372.8c-11.23,0.38-22.46,0.76-35.87,1.21C292.14,386.84,304.53,386.7,316.37,372.8z"/>
	</g>
</g>
</svg>
